<?xml version="1.0" encoding="utf-8"?>
<!DOCTYPE svg PUBLIC "-//W3C//DTD SVG 20010904//EN" "http://www.w3.org/TR/2001/REC-SVG-20010904/DTD/svg10.dtd">
<svg version="1.0" width="675pt" height="675pt" viewBox="0 0 675 675" preserveAspectRatio="xMidYMid meet" xmlns="http://www.w3.org/2000/svg">
  <g transform="translate(0,675)scale(.075,.075)">
    <path id="path1" d="M 4235 -8894 c -22 2 -96 9 -165 15 -581 51 -1225 256 -1746 554 -332 191 -611 403 -897 685 -244 238 -413 443 -591 712 -389 591 -617 1222 -703 1946 -24 207 -24 736 0 944 88 742 329 1396 735 1995 258 380 620 761 990 1041 107 81 344 236 480 314 509 291 1132 489 1734 550 190 20 709 17 897 -5 402 -47 799 -145 1156 -286 416 -164 861 -433 1222 -738 109 -93 405 -389 498 -498 512 -605 851 -1330 984 -2108 46 -265 56 -399 56 -737 -1 -338 -11 -479 -56 -740 -134 -782 -476 -1509 -997 -2117 -115 -136 -375 -394 -507 -504 -436 -365 -923 -636 -1460 -812 -286 -94 -574 -156 -885 -193 -127 -14 -649 -27 -745 -18 z m 460 179 c 150 39 280 172 302 310 l 6 35 -111 0 -110 0 -7 -29 c -9 -44 -69 -107 -120 -127 -63 -24 -146 -14 -199 23 -122 86 -121 302 0 387 32 21 57 29 105 33 57 4 70 2 119 -24 45 -24 59 -38 80 -80 l 25 -52 109 0 108 -1 -6 32 c -20 98 -104 212 -194 261 -184 100 -408 66 -547 -84 -67 -73 -96 -145 -103 -255 -17 -293 250 -504 543 -429 z m -1750 495 l 15 28 -160 93 c -88 50 -163 96 -166 100 -3 5 14 42 37 83 l 42 74 151 -88 151 -88 42 72 c 24 39 43 75 43 81 -1 6 -58 43 -128 82 -188 107 -175 84 -112 194 29 52 59 104 67 115 13 20 10 24 -78 74 -71 40 -94 49 -100 38 -74 -113 -399 -692 -392 -699 4 -4 120 -73 258 -152 l 250 -145 32 55 c 18 30 40 67 48 83 z m 3630 1 c 124 32 260 150 307 266 23 57 26 79 23 142 -1 40 -7 77 -12 82 -5 5 -49 -15 -100 -44 -89 -51 -91 -53 -97 -95 -3 -23 -10 -48 -16 -55 -70 -83 -115 -109 -198 -113 -73 -4 -117 16 -171 77 -86 98 -85 234 2 314 86 79 207 104 261 53 10 -10 -6 -23 -83 -66 -53 -30 -102 -60 -110 -67 -11 -11 -6 -25 30 -89 23 -41 45 -74 48 -72 8 5 394 227 404 233 11 6 -51 113 -93 159 -64 72 -179 122 -270 118 -56 -2 -117 -11 -130 -19 -6 -3 -18 -8 -28 -10 -21 -4 -120 -61 -142 -81 -8 -8 -24 -22 -35 -32 -42 -35 -98 -128 -115 -192 -14 -53 -15 -159 -1 -210 29 -106 120 -222 211 -269 92 -47 208 -59 315 -30 z m -4938 734 l 56 56 19 -31 19 -31 67 37 c 37 20 71 41 77 46 6 5 0 27 -18 59 l -29 50 28 22 c 16 12 41 34 57 50 16 16 30 27 32 25 1 -2 10 -17 19 -35 l 16 -32 79 46 79 46 -29 49 c -16 27 -29 52 -29 55 0 3 22 28 50 55 28 27 50 53 50 59 0 10 -90 169 -96 169 -1 0 -27 -24 -57 -53 l -54 -53 -39 70 c -21 39 -40 74 -42 77 -2 4 20 29 48 57 27 27 50 54 50 59 0 6 -21 47 -46 91 l -45 81 -55 -55 c -30 -30 -56 -54 -58 -54 -2 0 -9 14 -16 30 -7 16 -14 30 -15 30 -3 0 -147 -81 -154 -87 -2 -1 8 -25 23 -53 l 27 -50 -53 -51 c -57 -55 -57 -55 -93 6 -9 15 -17 13 -85 -26 -41 -23 -76 -43 -78 -45 -2 -1 11 -25 28 -53 16 -29 30 -55 30 -58 0 -4 -25 -31 -55 -60 -30 -30 -55 -56 -55 -59 0 -10 92 -164 98 -164 4 0 30 23 59 50 29 28 54 50 57 50 3 0 24 -32 46 -71 45 -75 44 -80 -5 -120 -11 -9 -32 -28 -46 -41 l -27 -25 50 -86 c 28 -48 52 -87 55 -87 2 0 29 25 60 55 z m 6413 768 c 58 100 105 187 106 192 0 5 4 17 7 25 15 37 23 88 22 130 -2 67 -15 139 -26 145 -5 4 -9 15 -9 26 0 10 -4 19 -9 19 -5 0 -14 12 -19 28 -17 45 -84 105 -167 147 -75 38 -82 40 -174 40 -79 0 -107 -4 -156 -25 -67 -27 -67 -27 -134 -91 -33 -31 -80 -101 -149 -220 -55 -96 -102 -180 -104 -187 -3 -11 674 -411 697 -412 5 0 57 82 115 183 z m -6910 232 c 8 2 35 7 60 10 25 3 56 8 70 10 14 2 54 7 90 11 36 4 76 8 90 9 14 2 25 4 25 5 0 1 11 3 25 4 38 4 131 16 165 21 44 6 116 16 148 20 15 1 30 5 33 8 5 5 -93 184 -105 191 -3 2 -27 1 -51 -4 -25 -4 -62 -10 -82 -13 l -37 -5 -78 137 c -43 74 -79 138 -81 142 -1 3 6 15 15 26 10 12 25 31 33 43 8 12 23 31 32 42 10 12 18 25 18 30 0 5 -19 42 -42 81 -68 118 -60 113 -95 64 -17 -23 -39 -52 -49 -64 -11 -11 -26 -31 -34 -43 -8 -12 -20 -28 -25 -34 -6 -6 -31 -38 -55 -71 -51 -69 -54 -72 -78 -102 -9 -11 -24 -31 -32 -43 -8 -12 -25 -34 -38 -48 -12 -15 -35 -45 -50 -67 -15 -22 -32 -45 -38 -50 -16 -15 -104 -134 -104 -141 0 -4 23 -47 51 -96 l 51 -89 76 6 c 43 3 84 8 92 10 z m -350 1104 l 0 58 61 12 c 34 7 67 15 75 18 11 4 14 -5 14 -36 l 0 -41 90 0 89 0 3 62 c 3 62 3 62 38 71 19 4 52 13 72 18 l 38 10 0 99 c 0 55 -3 100 -8 100 -4 0 -38 -8 -75 -19 l -67 -18 0 88 0 88 40 11 c 22 5 55 14 72 18 l 33 8 3 101 3 101 -73 -19 c -40 -10 -74 -19 -76 -19 -1 0 -2 16 -2 35 l 0 35 -90 0 -89 0 -3 -57 -3 -58 -70 -16 -70 -16 -3 44 -3 43 -90 0 -89 0 0 -65 0 -64 -40 -11 c -22 -5 -58 -15 -80 -20 l -40 -11 0 -100 c 0 -91 2 -100 18 -95 9 3 37 10 62 16 25 6 53 13 62 16 16 5 18 -4 18 -84 l 0 -90 -80 -18 -80 -17 0 -102 0 -103 72 19 c 40 10 76 19 80 19 5 0 8 -16 8 -35 l 0 -35 90 0 90 0 0 59 z m 7485 530 l 400 167 3 110 3 110 -411 171 -411 171 3 -115 3 -116 78 -29 77 -30 -2 -165 -3 -166 -77 -30 -78 -30 0 -109 c 0 -59 3 -108 8 -107 4 0 187 76 407 168 z m -7286 350 c 111 34 207 127 254 244 19 47 22 76 25 289 l 4 238 -412 0 -412 0 4 -238 c 3 -214 6 -242 25 -290 46 -115 148 -212 258 -245 70 -22 181 -21 254 2 z m 242 1082 c 26 44 31 46 79 34 14 -3 32 -8 40 -10 8 -2 15 -4 15 -6 0 -1 10 -3 22 -4 19 -2 31 12 68 76 50 87 53 99 27 99 -10 0 -22 3 -26 7 -3 4 -12 8 -19 10 -7 1 -21 4 -32 7 -11 2 -26 5 -33 5 -9 1 -2 23 23 69 21 37 42 71 47 77 5 6 34 3 79 -9 39 -10 75 -14 79 -10 4 5 28 44 53 86 l 45 77 -31 7 c -18 3 -37 9 -42 12 -5 4 -16 8 -23 9 -12 3 -44 11 -50 12 -1 1 5 15 13 32 9 17 15 32 13 33 -2 2 -36 22 -76 45 -81 47 -84 47 -113 -21 -6 -16 -17 -28 -23 -28 -20 1 -101 25 -120 36 -19 11 -19 13 -3 38 9 14 17 29 17 35 0 9 -132 91 -147 91 -4 0 -21 -24 -37 -54 l -29 -54 -66 19 c -36 11 -73 19 -83 19 -10 0 -34 -30 -62 -80 -25 -43 -46 -81 -46 -83 0 -3 21 -10 48 -17 26 -8 49 -14 52 -16 3 -1 15 -5 28 -9 12 -4 22 -9 22 -12 0 -2 -18 -36 -40 -74 -29 -48 -46 -68 -58 -66 -39 8 -108 28 -124 37 -13 8 -25 -6 -67 -80 -52 -92 -58 -106 -42 -95 5 3 12 1 15 -3 3 -5 33 -15 66 -22 63 -13 70 -22 45 -57 -17 -25 -17 -25 77 -77 l 66 -37 28 50 c 24 45 30 50 53 44 14 -3 31 -9 36 -13 5 -5 27 -11 47 -15 21 -4 38 -9 38 -11 0 -1 -9 -18 -20 -36 l -20 -34 73 -42 c 39 -23 76 -40 82 -38 5 1 21 22 36 47 z m 6622 494 c 191 110 347 203 347 207 0 3 -63 116 -141 250 -78 133 -144 248 -148 255 -4 8 -30 -2 -86 -34 -44 -25 -81 -47 -83 -48 -1 -1 41 -78 94 -169 53 -92 93 -171 88 -175 -5 -4 -30 -20 -55 -34 l -47 -27 -76 133 c -109 192 -89 177 -179 125 l -76 -44 84 -146 c 47 -81 85 -151 85 -155 0 -7 -93 -63 -104 -63 -3 0 -46 72 -97 160 -51 89 -96 163 -99 165 -10 6 -160 -77 -160 -89 0 -15 293 -517 300 -514 3 2 162 93 353 203 z m -6148 256 c 82 21 107 37 185 110 184 175 194 470 22 631 -161 151 -386 163 -552 30 -25 -20 -47 -40 -49 -45 -1 -4 -11 -16 -21 -25 -24 -23 -75 -110 -85 -147 -15 -55 -16 -60 -20 -85 -1 -14 -4 -27 -5 -30 -13 -28 18 -194 39 -210 3 -3 17 -22 31 -43 14 -20 31 -36 38 -35 7 2 35 41 63 88 49 85 49 85 36 130 -14 49 -14 48 -4 103 9 41 42 105 67 125 30 25 96 55 129 59 18 2 50 -2 70 -9 38 -13 45 -15 61 -17 18 -2 110 -99 110 -115 0 -8 4 -17 9 -20 5 -3 8 -36 7 -73 -5 -124 -93 -233 -190 -233 l -35 0 50 88 c 90 155 90 134 7 182 -39 22 -76 39 -82 36 -11 -4 -236 -389 -236 -403 0 -7 126 -80 142 -82 8 -2 21 -5 48 -14 27 -9 124 -7 165 4 z m 767 745 c 43 25 78 50 78 55 0 5 -23 31 -50 58 l -50 50 74 40 c 41 23 80 39 87 35 8 -3 30 -25 49 -49 19 -24 41 -44 48 -44 7 -1 49 20 93 45 89 51 88 44 15 118 -36 36 -38 40 -21 52 10 7 23 15 29 17 11 4 -29 91 -64 137 l -17 23 -47 -26 -46 -26 -50 51 c -28 28 -50 54 -50 58 0 4 16 15 35 26 19 10 35 20 35 21 0 2 -43 75 -77 131 l -14 23 -56 -31 -56 -32 -54 56 c -30 31 -58 56 -62 56 -10 0 -171 -90 -171 -96 0 -2 25 -29 56 -59 31 -31 55 -57 53 -59 -2 -2 -37 -22 -77 -46 l -72 -43 -23 25 c -12 13 -37 41 -55 61 l -32 38 -89 -52 -89 -52 54 -55 c 30 -31 54 -58 54 -62 0 -4 -11 -13 -25 -20 -14 -7 -25 -17 -25 -22 0 -12 81 -148 88 -148 3 0 25 12 50 26 l 44 26 54 -55 54 -55 -36 -21 -36 -21 23 -38 c 12 -20 31 -53 42 -72 11 -19 22 -37 23 -39 2 -2 28 9 58 25 l 55 28 50 -52 c 27 -28 53 -52 57 -52 4 0 43 21 86 46 z m 4320 324 c 109 190 197 349 195 354 -6 19 -357 214 -409 227 -184 44 -314 -75 -274 -253 7 -33 6 -37 -11 -34 -27 6 -122 -30 -140 -51 -56 -71 -67 -98 -68 -168 0 -63 3 -75 32 -116 17 -25 47 -58 66 -73 46 -37 389 -236 401 -232 5 1 98 157 208 346 z m -3552 124 c 87 20 246 136 264 194 4 12 11 22 15 22 12 0 52 143 53 187 0 74 -13 129 -49 202 -56 112 -124 171 -244 211 -71 24 -185 28 -222 9 -12 -7 -23 -12 -25 -11 -7 6 -64 -15 -107 -41 -67 -40 -126 -100 -162 -167 -40 -74 -52 -130 -48 -214 4 -79 6 -93 21 -119 10 -18 17 -15 103 33 l 92 53 -6 55 c -9 99 55 195 148 219 38 10 131 5 135 -6 2 -6 11 -11 20 -11 24 0 108 -95 117 -132 4 -18 9 -40 11 -48 31 -125 -64 -243 -200 -249 -45 -2 -68 3 -102 21 -24 12 -44 26 -44 30 0 5 -4 8 -9 8 -8 0 -179 -95 -190 -105 -6 -7 78 -83 99 -90 11 -3 20 -10 20 -14 0 -5 26 -16 58 -25 31 -10 62 -20 67 -22 13 -5 152 3 185 10 z m 1030 174 c 0 4 -8 38 -19 75 l -18 67 88 0 88 0 10 -38 c 5 -20 14 -53 19 -72 l 8 -35 101 -3 101 -3 -19 73 c -10 40 -19 74 -19 76 0 1 16 2 35 2 l 35 0 0 90 0 89 -57 3 -58 3 -16 70 -16 70 44 3 43 3 0 90 0 89 -65 0 -64 0 -11 42 c -6 24 -16 60 -21 80 l -10 38 -100 0 c -91 0 -100 -2 -95 -18 3 -9 10 -37 16 -62 6 -25 13 -53 16 -62 5 -16 -4 -18 -84 -18 l -90 0 -18 80 -17 80 -102 0 -103 0 19 -72 c 10 -40 19 -76 19 -80 0 -5 -16 -8 -35 -8 l -35 0 0 -90 0 -90 59 0 58 0 12 -61 c 7 -34 15 -67 18 -75 4 -11 -5 -14 -36 -14 l -41 0 0 -90 0 -89 62 -3 c 62 -3 62 -3 71 -38 4 -19 13 -52 18 -72 l 10 -38 99 0 c 55 0 100 3 100 8 z m 1090 402 l 0 410 -300 0 -300 0 0 -95 0 -95 195 0 195 0 0 -90 0 -90 -175 0 -175 0 0 -90 0 -90 175 0 175 0 0 -135 0 -135 105 0 105 0 0 410 z M 1686 -7056 c -20 35 -36 69 -36 75 0 6 23 33 52 60 l 51 49 44 -75 43 -76 -50 -48 c -28 -27 -55 -49 -59 -49 -5 0 -25 29 -45 64 z M 7690 -6520 c -102 60 -184 112 -183 117 3 17 87 157 103 173 83 82 206 81 306 -4 32 -28 48 -51 59 -89 17 -59 19 -103 5 -112 -6 -4 -8 -10 -5 -15 4 -7 -92 -182 -98 -179 -1 0 -85 49 -187 109 z M 1147 -6267 c 9 15 16 23 54 67 17 19 42 52 56 72 14 21 27 38 29 38 6 0 84 -138 84 -149 0 -6 -15 -11 -32 -11 -18 0 -51 -4 -73 -9 -81 -18 -126 -21 -118 -8 z M 790 -5035 l 0 84 42 11 c 24 6 58 15 76 20 l 32 8 0 -88 0 -88 -65 -16 c -35 -9 -69 -16 -75 -16 -6 0 -10 32 -10 85 z M 8200 -4578 c 0 82 2 90 18 84 111 -41 201 -81 195 -86 -5 -4 -54 -25 -111 -48 l -102 -40 0 90 z M 785 -4295 c -59 16 -118 73 -134 131 -6 22 -11 81 -11 132 l 0 92 220 0 220 0 0 -92 c 0 -121 -13 -163 -64 -214 -31 -32 -54 -44 -94 -53 -64 -13 -74 -13 -137 4 z M 1112 -3121 c -34 10 -65 21 -68 24 -3 3 13 37 36 76 38 67 63 85 84 64 3 -4 12 -8 19 -9 7 -2 23 -6 37 -9 14 -4 31 -7 38 -7 7 -1 11 -4 10 -7 -17 -36 -84 -151 -88 -150 -3 0 -33 9 -68 18 z M 2272 -1573 c -61 62 -64 53 39 111 l 57 32 55 -54 55 -55 -56 -32 c -31 -18 -66 -38 -77 -45 -18 -11 -25 -7 -73 43 z M 6403 -1652 c -85 48 -108 76 -101 123 5 40 47 71 88 66 28 -4 154 -68 177 -91 5 -4 -73 -147 -80 -146 -1 0 -39 22 -84 48 z M 6578 -1372 c -37 20 -72 46 -78 57 -22 42 -20 66 7 91 35 33 69 28 155 -23 l 67 -39 -35 -62 c -19 -34 -38 -62 -42 -62 -4 0 -37 17 -74 38 z M 4176 -915 c -9 35 -16 69 -16 75 0 6 32 10 85 10 l 84 0 11 -42 c 6 -24 15 -58 20 -76 l 8 -32 -88 0 -88 0 -16 65 z " />
  </g>
</svg>