<?xml version="1.0" encoding="utf-8"?>
<!DOCTYPE svg PUBLIC "-//W3C//DTD SVG 20010904//EN" "http://www.w3.org/TR/2001/REC-SVG-20010904/DTD/svg10.dtd">
<svg version="1.0" width="675pt" height="675pt" viewBox="0 0 675 675" preserveAspectRatio="xMidYMid meet" xmlns="http://www.w3.org/2000/svg">
  <g transform="translate(0,675)scale(.075,.075)">
    <path id="path1" d="M 4254 -8889 c -1787 97 -3345 1286 -3913 2987 -303 904 -303 1880 0 2784 329 986 1003 1827 1899 2369 153 92 471 250 640 317 690 273 1445 367 2185 272 706 -91 1388 -358 1969 -769 397 -282 765 -651 1047 -1048 757 -1067 996 -2429 649 -3695 -385 -1407 -1457 -2538 -2840 -2998 -384 -128 -751 -197 -1170 -220 -195 -11 -259 -11 -466 1 z m 441 174 c 150 39 280 172 302 310 l 6 35 -111 0 -110 0 -7 -29 c -9 -44 -69 -107 -120 -127 -63 -24 -146 -14 -199 23 -122 86 -121 302 0 387 32 21 57 29 105 33 57 4 70 2 119 -24 45 -24 59 -38 80 -80 l 25 -52 109 0 108 -1 -6 32 c -20 98 -104 212 -194 261 -184 100 -408 66 -547 -84 -67 -73 -96 -145 -103 -255 -17 -293 250 -504 543 -429 z m -1780 435 c 25 44 43 85 40 90 -3 5 -77 50 -165 100 -88 50 -160 93 -160 95 0 6 82 145 85 145 2 0 70 -38 151 -85 81 -47 150 -83 153 -80 14 14 89 151 85 156 -2 3 -63 41 -136 83 -73 42 -139 80 -146 84 -9 6 4 37 52 123 37 64 62 117 57 122 -9 9 -175 106 -177 103 -6 -5 -406 -703 -407 -709 -2 -6 498 -304 515 -306 3 -1 27 35 53 79 z m 3728 84 c 74 36 103 56 155 108 45 45 52 56 82 121 23 48 30 76 30 123 0 74 -9 124 -22 124 -19 0 -188 -102 -188 -114 0 -58 -48 -129 -113 -170 -75 -46 -195 -36 -250 21 -49 50 -67 76 -67 93 0 10 -4 21 -9 24 -5 3 -9 17 -10 31 -1 14 -2 31 -2 37 -4 45 29 118 68 154 71 66 200 97 242 57 20 -18 20 -19 -72 -70 -142 -80 -134 -65 -81 -156 25 -43 49 -77 54 -75 30 11 409 235 410 242 0 18 -76 132 -111 166 -62 59 -96 79 -173 99 -35 9 -148 8 -186 -2 -61 -16 -82 -24 -135 -56 -155 -90 -239 -238 -230 -407 2 -41 9 -81 15 -89 7 -8 9 -15 5 -15 -4 0 10 -30 30 -68 84 -151 213 -223 391 -217 82 2 100 6 167 39 z m 1409 1475 c 60 104 108 195 108 203 0 8 6 20 12 26 9 9 13 48 13 120 0 101 -2 111 -34 175 -56 114 -165 201 -291 234 -58 15 -211 3 -218 -17 -2 -6 -9 -10 -16 -10 -28 0 -96 -42 -139 -85 -56 -58 -264 -412 -249 -427 11 -11 694 -408 702 -407 3 0 53 85 112 188 z m -6707 -129 c 27 5 79 12 115 16 36 4 76 8 90 9 14 2 25 4 25 5 0 1 18 3 40 5 22 2 53 6 70 9 27 5 115 16 175 22 14 1 25 3 25 4 0 1 18 4 40 5 65 6 160 17 163 20 2 2 -23 49 -54 104 l -58 101 -41 -4 c -22 -3 -61 -8 -86 -11 l -46 -7 -76 132 c -42 72 -77 136 -77 141 0 12 45 74 78 107 12 13 22 25 22 28 0 3 -25 48 -56 101 l -56 95 -34 -38 c -42 -49 -46 -54 -65 -84 -9 -14 -31 -41 -48 -60 -17 -19 -31 -38 -31 -41 0 -6 -25 -38 -53 -69 -8 -8 -28 -36 -46 -62 -17 -27 -37 -48 -43 -48 -6 0 -9 -3 -5 -6 3 -4 1 -12 -6 -19 -7 -7 -19 -23 -27 -35 -8 -12 -20 -28 -25 -34 -42 -45 -155 -201 -155 -213 0 -8 24 -55 52 -104 l 52 -90 46 6 c 25 4 68 10 95 15 z m 1041 396 c 58 58 57 58 84 14 8 -13 19 -10 74 20 105 56 101 50 68 107 l -29 49 53 51 53 51 21 -35 c 11 -19 23 -32 28 -30 4 2 40 23 80 46 l 73 43 -30 53 -30 53 48 44 c 26 24 50 49 54 55 7 12 -76 167 -95 179 -5 3 -32 -17 -60 -45 l -52 -51 -41 72 -42 71 54 53 c 29 30 53 56 53 58 0 5 -59 109 -87 154 l -14 23 -28 -28 c -41 -41 -82 -75 -86 -71 -1 2 -8 13 -14 26 -6 12 -15 22 -19 22 -4 0 -42 -20 -84 -45 l -76 -44 26 -50 27 -50 -48 -45 c -26 -25 -51 -46 -55 -46 -5 0 -16 16 -25 34 l -16 35 -81 -46 c -44 -25 -80 -47 -80 -50 0 -3 14 -29 30 -58 l 30 -53 -59 -59 -59 -59 50 -85 c 27 -46 52 -86 54 -88 2 -3 29 21 60 53 31 32 57 56 59 54 2 -2 21 -34 44 -73 l 41 -70 -61 -56 -61 -57 53 -91 c 30 -50 55 -91 56 -91 1 0 28 25 59 56 z m 5889 1603 l 400 167 3 110 3 110 -411 171 -411 171 3 -115 3 -116 78 -29 77 -30 -2 -165 -3 -166 -77 -30 -78 -30 0 -109 c 0 -59 3 -108 8 -107 4 0 187 76 407 168 z m -7286 -110 c 111 34 207 127 254 244 19 47 22 76 25 289 l 4 238 -412 0 -412 0 4 -238 c 3 -214 6 -242 25 -290 46 -115 148 -212 258 -245 70 -22 181 -21 254 2 z m 1041 40 l 0 58 61 12 c 34 7 67 15 75 18 11 4 14 -5 14 -36 l 0 -41 90 0 89 0 3 62 c 3 62 3 62 38 71 19 4 52 13 72 18 l 38 10 0 99 c 0 55 -3 100 -8 100 -4 0 -38 -8 -75 -19 l -67 -18 0 88 0 88 40 11 c 22 5 55 14 72 18 l 33 8 3 101 3 101 -73 -19 c -40 -10 -74 -19 -76 -19 -1 0 -2 16 -2 35 l 0 35 -90 0 -89 0 -3 -57 -3 -58 -70 -16 -70 -16 -3 44 -3 43 -90 0 -89 0 0 -65 0 -64 -40 -11 c -22 -5 -58 -15 -80 -20 l -40 -11 0 -100 c 0 -91 2 -100 18 -95 9 3 37 10 62 16 25 6 53 13 62 16 16 5 18 -4 18 -84 l 0 -90 -80 -18 -80 -17 0 -102 0 -103 72 19 c 40 10 76 19 80 19 5 0 8 -16 8 -35 l 0 -35 90 0 90 0 0 59 z m 366 1379 c 31 53 44 65 59 53 12 -10 124 -36 128 -30 17 21 98 172 94 175 -2 3 -13 7 -23 9 -11 2 -40 11 -66 19 -25 8 -49 12 -52 8 -4 -3 13 29 36 71 45 82 41 80 108 62 14 -3 30 -7 35 -8 6 -2 15 -6 22 -10 6 -4 17 -5 25 -2 13 6 113 174 107 179 -2 2 -36 11 -76 21 -69 18 -71 19 -57 39 8 11 14 26 14 32 0 11 -133 94 -151 94 -4 0 -20 -20 -35 -45 -24 -43 -42 -54 -58 -38 -3 4 -13 8 -21 10 -25 5 -39 9 -63 17 l -23 8 21 35 c 11 20 19 38 16 40 -15 15 -152 90 -158 87 -4 -3 -19 -27 -35 -55 -26 -49 -28 -50 -62 -44 -20 4 -40 10 -46 13 -10 7 -13 7 -55 16 -24 5 -31 -2 -77 -82 -28 -48 -50 -88 -48 -90 2 -2 9 -4 17 -6 7 -1 18 -4 23 -7 5 -4 34 -12 63 -19 l 52 -12 -35 -62 c -20 -33 -39 -67 -43 -74 -7 -10 -15 -10 -38 -2 -16 7 -37 14 -46 16 -10 2 -26 6 -36 8 -9 2 -23 6 -31 8 -9 2 -34 -31 -66 -87 l -53 -90 62 -18 c 33 -10 68 -20 76 -22 8 -2 16 -4 18 -4 1 -1 -5 -15 -14 -32 -18 -36 -24 -30 74 -85 34 -19 67 -32 72 -29 6 4 19 24 30 46 11 21 24 39 28 39 5 0 33 -8 63 -17 30 -9 57 -16 61 -15 13 3 9 -17 -8 -44 -9 -13 -14 -28 -10 -31 6 -6 148 -93 153 -93 0 0 14 21 29 48 z m -1040 421 c 113 30 211 120 275 248 38 77 42 92 45 176 7 175 -62 302 -213 390 -103 59 -223 71 -339 31 -75 -25 -100 -40 -158 -97 -141 -137 -190 -349 -117 -502 24 -48 77 -112 87 -102 19 19 112 192 106 197 -20 14 -28 76 -17 125 33 148 169 224 300 170 39 -17 47 -23 100 -75 28 -28 56 -108 50 -142 -12 -63 -19 -83 -38 -117 -44 -74 -139 -134 -167 -105 -4 5 19 55 52 111 33 56 57 106 54 112 -9 13 -148 93 -153 87 -3 -3 -58 -96 -123 -208 -69 -119 -114 -207 -110 -213 8 -10 108 -62 160 -84 48 -20 137 -21 206 -2 z m 6497 192 c 183 106 337 196 343 201 8 6 -31 83 -133 261 -80 139 -149 256 -153 260 -8 9 -170 -79 -170 -91 0 -4 43 -81 95 -171 52 -90 94 -165 93 -166 -24 -14 -98 -55 -102 -55 -2 0 -44 68 -91 150 l -87 150 -32 -19 c -17 -10 -52 -31 -78 -46 -27 -15 -48 -29 -48 -32 0 -3 36 -67 79 -143 44 -75 81 -142 83 -148 2 -7 -19 -25 -47 -41 l -49 -30 -57 97 c -31 53 -75 129 -98 169 l -42 72 -82 -49 c -45 -27 -81 -54 -79 -59 2 -10 243 -433 279 -489 9 -14 20 -21 29 -18 9 3 165 92 347 197 z m -4391 313 c 38 21 68 40 68 44 0 3 -24 28 -53 57 l -53 51 74 42 74 41 54 -55 c 52 -52 57 -54 77 -41 12 7 53 31 91 52 l 68 38 -31 29 c -17 16 -31 34 -31 39 0 6 -4 7 -10 4 -6 -3 -10 -2 -10 4 0 5 -7 16 -15 24 -13 13 -11 16 15 27 17 7 30 15 30 18 0 3 -21 41 -46 84 l -46 78 -50 -27 -50 -27 -44 47 c -24 26 -44 52 -44 57 0 5 13 16 30 25 17 9 30 18 30 21 0 16 -85 154 -94 154 -6 0 -29 -11 -51 -25 -22 -13 -45 -25 -52 -25 -6 0 -36 25 -66 55 l -55 55 -81 -46 c -45 -26 -84 -50 -87 -55 -3 -5 19 -34 50 -64 63 -62 68 -48 -40 -113 -59 -35 -52 -37 -124 47 -19 22 -38 41 -42 41 -9 0 -178 -100 -178 -106 0 -3 25 -29 56 -59 l 56 -53 -29 -18 c -15 -10 -29 -19 -31 -19 -1 -1 18 -38 44 -83 l 46 -81 51 29 51 29 47 -52 c 51 -55 51 -57 -1 -87 -15 -9 -5 -34 57 -132 l 23 -38 50 30 c 28 17 53 30 56 30 3 0 28 -25 56 -55 48 -50 54 -53 73 -41 11 7 50 30 87 50 z m 1208 344 c 0 4 -8 38 -19 75 l -18 67 88 0 88 0 10 -38 c 5 -20 14 -53 19 -72 l 8 -35 101 -3 101 -3 -19 73 c -10 40 -19 74 -19 76 0 1 16 2 35 2 l 35 0 0 90 0 89 -57 3 -58 3 -16 70 -16 70 44 3 43 3 0 90 0 89 -65 0 -64 0 -11 42 c -6 24 -16 60 -21 80 l -10 38 -100 0 c -91 0 -100 -2 -95 -18 3 -9 10 -37 16 -62 6 -25 13 -53 16 -62 5 -16 -4 -18 -84 -18 l -90 0 -18 80 -17 80 -102 0 -103 0 19 -72 c 10 -40 19 -76 19 -80 0 -5 -16 -8 -35 -8 l -35 0 0 -90 0 -90 59 0 58 0 12 -61 c 7 -34 15 -67 18 -75 4 -11 -5 -14 -36 -14 l -41 0 0 -90 0 -89 62 -3 c 62 -3 62 -3 71 -38 4 -19 13 -52 18 -72 l 10 -38 99 0 c 55 0 100 3 100 8 z m 2117 657 c 105 181 195 340 202 352 10 20 1 27 -172 127 -101 58 -190 106 -198 106 -8 0 -20 5 -25 10 -28 28 -178 16 -212 -17 -7 -7 -19 -16 -25 -20 -7 -5 -25 -29 -40 -55 -29 -50 -35 -102 -19 -154 l 10 -32 -49 -6 c -27 -4 -49 -11 -49 -16 0 -6 -7 -10 -15 -10 -19 0 -69 -50 -89 -88 -51 -99 -32 -205 49 -274 11 -10 27 -24 35 -32 27 -26 395 -235 401 -228 4 4 92 156 196 337 z m -4148 -121 c 24 4 51 11 60 15 118 56 128 63 192 124 16 16 29 32 29 36 0 4 9 18 20 31 11 13 20 29 20 36 0 7 3 14 8 16 16 7 41 133 37 187 -6 79 -11 96 -53 180 -32 66 -132 167 -173 176 -16 4 -29 10 -29 14 0 11 -95 33 -149 35 -39 2 -127 -12 -176 -27 -27 -8 -97 -49 -122 -72 -15 -13 -33 -29 -38 -33 -109 -95 -162 -304 -107 -423 l 17 -37 97 56 c 85 49 97 59 91 77 -22 65 1 144 58 197 23 21 55 42 71 45 15 3 30 9 33 13 6 10 81 1 119 -15 17 -8 42 -25 56 -39 14 -15 33 -34 43 -45 10 -10 19 -28 22 -40 2 -11 7 -27 12 -33 13 -22 15 -98 2 -135 -12 -38 -56 -88 -103 -117 -62 -39 -182 -26 -227 26 -16 18 -20 17 -113 -38 -53 -31 -96 -60 -96 -65 0 -8 16 -24 79 -78 13 -11 33 -23 45 -27 11 -4 23 -10 26 -13 3 -4 30 -14 60 -22 58 -15 116 -16 189 -5 z m 2211 896 l 0 410 -300 0 -300 0 0 -95 0 -95 195 0 195 0 0 -90 0 -90 -175 0 -175 0 0 -90 0 -90 175 0 175 0 0 -135 0 -135 105 0 105 0 0 410 z M 7697 -6521 c -92 54 -173 103 -178 108 -8 8 2 33 32 85 56 96 84 125 140 143 45 15 112 16 126 2 3 -4 14 -7 24 -7 18 0 47 -23 101 -77 35 -35 48 -97 35 -165 -8 -40 -86 -180 -102 -184 -6 -1 -86 41 -178 95 z M 1400 -6604 c 38 42 44 50 60 74 8 12 20 28 26 34 6 6 15 19 20 29 8 14 17 5 52 -57 42 -73 49 -92 34 -82 -4 3 -26 1 -48 -4 -21 -5 -68 -12 -104 -15 l -65 -6 25 27 z M 2437 -6010 l -38 70 51 51 52 52 39 -67 c 21 -37 39 -71 39 -74 0 -7 -95 -102 -102 -102 -2 0 -20 32 -41 70 z M 8200 -4578 c 0 82 2 90 18 84 111 -41 201 -81 195 -86 -5 -4 -54 -25 -111 -48 l -102 -40 0 90 z M 785 -4755 c -59 16 -118 73 -134 131 -6 22 -11 81 -11 132 l 0 92 220 0 220 0 0 -92 c 0 -121 -13 -163 -64 -214 -31 -32 -54 -44 -94 -53 -64 -13 -74 -13 -137 4 z M 2030 -4575 l 0 84 42 11 c 24 6 58 15 76 20 l 32 8 0 -88 0 -88 -65 -16 c -35 -9 -69 -16 -75 -16 -6 0 -10 32 -10 85 z M 2320 -3239 c -24 10 -47 17 -79 23 -8 1 -17 8 -19 14 -5 17 68 140 82 138 26 -6 126 -38 126 -41 0 -4 -81 -145 -83 -144 -1 0 -13 5 -27 10 z M 3246 -2270 c -27 28 -46 53 -43 56 3 3 34 23 69 43 l 64 38 47 -49 c 26 -27 47 -52 47 -56 0 -6 -123 -82 -132 -82 -2 0 -26 23 -52 50 z M 4576 -1885 c -9 35 -16 69 -16 75 0 6 32 10 85 10 l 84 0 11 -42 c 6 -24 15 -58 20 -76 l 8 -32 -88 0 -88 0 -16 65 z M 6402 -1648 c -110 65 -126 108 -65 166 32 30 64 24 160 -32 l 72 -42 -37 -66 c -21 -37 -40 -69 -42 -71 -3 -2 -42 18 -88 45 z M 6584 -1372 c -79 48 -94 64 -94 101 0 47 28 67 85 61 15 -1 116 -55 144 -76 4 -4 -62 -124 -69 -123 -3 0 -32 17 -66 37 z " />
  </g>
</svg>