<?xml version="1.0" encoding="utf-8"?>
<!DOCTYPE svg PUBLIC "-//W3C//DTD SVG 20010904//EN" "http://www.w3.org/TR/2001/REC-SVG-20010904/DTD/svg10.dtd">
<svg version="1.0" width="675pt" height="675pt" fill="orange" viewBox="0 0 675 675" preserveAspectRatio="xMidYMid meet" xmlns="http://www.w3.org/2000/svg">
  <g transform="translate(0,675)scale(.075,.075)">
    <path id="path1" d="M 4235 -8894 c -22 2 -96 9 -165 15 -581 51 -1226 256 -1746 554 -215 124 -457 292 -450 312 3 7 600 797 1328 1755 728 959 1329 1759 1336 1778 6 19 382 931 835 2025 667 1613 826 1990 840 1987 27 -3 336 -155 452 -222 364 -208 657 -434 955 -738 233 -236 349 -376 510 -612 407 -600 647 -1248 737 -1995 25 -210 25 -735 0 -950 -108 -908 -453 -1702 -1035 -2382 -115 -136 -375 -394 -507 -504 -436 -365 -923 -636 -1460 -812 -286 -94 -574 -156 -885 -193 -127 -14 -649 -27 -745 -18 z " />
  </g>
</svg>